<svg xmlns="http://www.w3.org/2000/svg" viewBox="-6092 6756 268 71"><defs><style>.a{fill:#595957;}.b{fill:none;}.c{fill:#fecc14;}</style></defs><g transform="translate(-6165 6017)"><rect class="a" width="268" height="71" transform="translate(73 739)"/><g transform="translate(96 756.2)"><path class="b" d="M105.762,21.441c-1.051-2.979-3.33-9.025-4.381-11.741-.175.526-.438,1.227-.789,2.015-1.139,2.979-2.716,7.36-3.592,9.726Z" transform="translate(-12.007 -1.213)"/><path class="b" d="M170.192,3C164.409,3,158.1,7.381,158.1,17.019c0,8.324,4.556,16.736,13.319,16.736,6.046,0,12.53-3.592,12.53-13.669C183.948,10.448,177.9,3,170.192,3Z" transform="translate(-19.57 -0.384)"/><path class="c" d="M43.548,33.734a3.482,3.482,0,0,1-2.366-.613c-.789-.7-1.051-1.49-1.84-7.886C38.992,22.344,36.976,3.68,36.8,2.1,36.714.789,36.626,0,35.925,0c-.613,0-.964.613-1.227,1.227C33.121,5.17,29.616,12.705,27.951,16.3l-.088.088c-1.928,4.031-4.732,10.077-5.608,11.741-1.051-2.278-3.5-7.185-5.17-10.515l-1.139-2.278c-.7-1.49-2.366-4.644-3.855-7.711l-2.8-5.608C8.5.438,8.324,0,7.623,0c-.789,0-.876.964-.964,2.541C6.572,3.592,4.907,21.818,4.469,26.374c-.438,4.732-.613,6.046-1.139,6.747a2.9,2.9,0,0,1-2.1.526c-.876,0-1.227.438-1.227.876,0,.263.263.789,1.051.789a9.011,9.011,0,0,0,1.49-.088,30.1,30.1,0,0,1,3.067-.088c1.928,0,2.629.088,3.154.088.438,0,.789.088,1.49.088a.892.892,0,0,0,.964-.789,1.051,1.051,0,0,0-1.051-.876c-1.139,0-1.84-.263-2.191-.789s-.438-1.051-.438-3.154c0-2.278.7-12,1.314-18.313,3.067,6.4,8.412,17.349,11.566,23.22l.088.088c.438.789.613,1.051,1.051,1.051s.613-.35.876-.876l.175-.263c1.139-2.453,7.273-15.334,10.69-23.132,1.139,10.777,2.015,19.978,2.015,21.029,0,.876-.088,1.051-1.051,1.139-.613.088-1.051.438-1.051.876,0,.175.088.789.964.789a7.111,7.111,0,0,0,1.49-.088,24.181,24.181,0,0,1,3.154-.088c1.314,0,2.366.088,3.154.088.613,0,1.139.088,1.577.088.876,0,1.051-.526,1.051-.789C44.775,34.172,44.424,33.734,43.548,33.734Z" transform="translate(0 -0.012)"/><path class="c" d="M75.529,28.264c-.438,0-.7.526-.789.789l-.088.088c-.964,2.8-1.49,3.68-5.958,3.68-5.345,0-5.345-.7-5.433-4.556V18.1h.263c5.783,0,7.273,0,7.974.613a2.864,2.864,0,0,1,.526,1.84c0,.789.263,1.139.789,1.139.438,0,.789-.35.789-1.051a28.507,28.507,0,0,1,.35-4.907,1.711,1.711,0,0,0,.088-.613.809.809,0,0,0-.789-.876.592.592,0,0,0-.526.35c-.263.263-.789.876-3.33.876H63.35v-.088c-.088-.35-.088-2.8-.088-6.046V3.2h5.433c3.68,0,4.381,1.051,4.381,3.154,0,.789.263,1.227.7,1.227.35,0,.876-.175.876-1.227,0-.263.175-1.928.263-2.541v-.35a8.168,8.168,0,0,1,.175-1.227,5.794,5.794,0,0,0,.088-.964.8.8,0,0,0-.7-.876.949.949,0,0,0-.526.088c-.526.088-1.665.35-8.149.35C60.2.838,58.18.75,56.953.663H55.727c-.964,0-1.139.526-1.139.789a.932.932,0,0,0,1.051.876c1.314,0,2.1.175,2.453.789.438.438.438,2.1.438,14.107,0,13.143-.175,15.334-.613,16.035-.438.613-1.051.7-2.191.7-.876,0-1.227.438-1.227.876,0,.263.263.789,1.051.789a17.659,17.659,0,0,0,2.015-.088c1.139-.088,2.541-.088,4.206-.088s6.4.088,9.288.175c1.314,0,2.278.088,2.453.088a1.485,1.485,0,0,0,1.665-1.051h0a32.017,32.017,0,0,0,.964-5.257C76.318,28.439,75.88,28.264,75.529,28.264Z" transform="translate(-6.746 -0.062)"/><path class="c" d="M116.559,33.722c-2.1-.175-3.242-1.4-4.644-5.082-.35-1.051-1.314-3.68-2.453-6.747-1.665-4.469-3.5-9.638-4.206-11.566-1.051-2.8-2.8-7.273-3.33-8.762l-.175-.438C101.488.513,101.225-.1,100.612-.1s-.876.613-1.051.964c-1.227,3.067-4.118,10.252-5.871,14.545l-.7,1.665c-.613,1.577-1.227,3.33-1.84,4.994-.526,1.49-1.051,2.892-1.577,4.293-1.577,4.206-2.278,5.783-3.067,6.4a3.6,3.6,0,0,1-2.278.789c-.876,0-1.227.438-1.227.876,0,.263.263.789,1.051.789a9.011,9.011,0,0,0,1.49-.088,30.1,30.1,0,0,1,3.067-.088c1.84,0,2.453.088,2.8.088s.613.088,1.314.088a.892.892,0,0,0,.964-.789.932.932,0,0,0-1.051-.876c-1.577,0-1.577-.876-1.577-1.227,0-1.314,2.191-7.273,3.067-9.638h10.69c3.242,8.5,3.592,10.252,3.592,10.6,0,.175,0,.263-.35.35-.964.088-1.051.7-1.051.876,0,.526.35.7,1.051.7a9.3,9.3,0,0,0,1.314-.088c.964-.088,2.278-.175,2.892-.175.7,0,2.1.088,3.067.175a9.226,9.226,0,0,1,1.051.088c1.139,0,1.227-.613,1.227-.789C117.786,33.81,116.91,33.722,116.559,33.722ZM99.561,8.4c1.051,2.716,3.33,8.85,4.381,11.741H95.267c.876-2.366,2.453-6.747,3.592-9.726C99.122,9.626,99.385,8.925,99.561,8.4Z" transform="translate(-10.274 0)"/><path class="c" d="M136.816,15.8c-3.417-2.716-6.572-5.257-6.572-8.675a4.6,4.6,0,0,1,4.994-4.644c3.855,0,5.7,1.227,5.7,3.855,0,.35,0,1.314.7,1.314.526,0,.876-.526.876-1.314,0-1.665.088-2.453.088-3.154,0-.526.088-.964.088-1.665,0-.876-.7-.964-1.49-.964h-.526a1.711,1.711,0,0,1-.613-.088C139.094.375,137.429.2,135.5.2c-7.36,0-9.288,5.52-9.288,8.85,0,5.52,4.293,8.85,8.061,11.741,3.067,2.366,5.7,4.381,5.7,7.1a6.039,6.039,0,0,1-5.958,5.783c-5.257,0-6.046-2.541-6.572-5.433-.088-.35-.175-1.227-.876-1.227-.263,0-.789.175-.876,1.4-.088,1.4-.088,2.8-.088,4.556,0,.789,0,1.577.964,1.928a18.806,18.806,0,0,0,6.922,1.139c4.381,0,10.515-3.154,10.515-10.164C144,21.492,140.32,18.6,136.816,15.8Z" transform="translate(-15.547 -0.037)"/><path class="c" d="M170.362,0C158.621,0,152.4,9.463,152.4,18.751a17.252,17.252,0,0,0,4.206,11.391c2.278,2.629,6.4,5.7,13.406,5.7,11.917,0,18.138-8.937,18.138-17.787C188.237,9.113,182.1,0,170.362,0Zm.35,33.3c-8.762,0-13.319-8.412-13.319-16.736,0-9.638,6.221-14.019,12.092-14.019,7.711,0,13.757,7.448,13.757,17.086C183.243,29.7,176.759,33.3,170.713,33.3Z" transform="translate(-18.864 -0.012)"/><path class="c" d="M240.623,33.722a3.482,3.482,0,0,1-2.366-.613c-.789-.7-1.051-1.49-1.84-7.886-.35-2.8-2.366-21.555-2.453-23.132-.175-1.227-.263-2.1-1.051-2.1-.613,0-.964.613-1.227,1.227-1.577,3.943-4.907,11.04-6.659,14.9l-.175.263c-1.84,4.031-4.732,10.077-5.608,11.741-1.139-2.453-3.855-7.886-5.52-11.3l-.789-1.577L208.9,7.173c-1.051-2.015-2.015-3.943-2.716-5.345C205.4.25,205.224-.1,204.523-.1c-.789,0-.876.964-.964,2.541-.088,1.051-1.84,20.241-2.191,23.833-.438,4.907-.613,6.134-1.139,6.747a2.9,2.9,0,0,1-2.1.526c-.876,0-1.227.438-1.227.876,0,.263.263.789,1.051.789a10.632,10.632,0,0,0,1.577-.088,30.1,30.1,0,0,1,3.067-.088c1.928,0,2.629.088,3.154.088.438,0,.789.088,1.49.088a.892.892,0,0,0,.964-.789,1.051,1.051,0,0,0-1.051-.876c-1.139,0-1.84-.263-2.191-.789s-.438-1.051-.438-3.154c0-2.366.7-12,1.314-18.313,3.067,6.4,8.412,17.349,11.566,23.307.438.789.613,1.139,1.051,1.139s.613-.35.876-.876l.175-.35c1.314-2.629,7.36-15.6,10.777-23.22,1.139,10.777,2.015,19.89,2.015,21.029,0,.876-.088,1.051-1.051,1.139-.613.088-1.051.438-1.051.876,0,.175.088.789.964.789a7.111,7.111,0,0,0,1.49-.088,24.181,24.181,0,0,1,3.154-.088c1.314,0,2.366.088,3.154.088.613,0,1.139.088,1.577.088.876,0,1.051-.526,1.051-.789C241.762,34.16,241.5,33.722,240.623,33.722Z" transform="translate(-24.373)"/></g></g></svg>
